<svg xmlns="http://www.w3.org/2000/svg" version="1.1" xmlns:xlink="http://www.w3.org/1999/xlink" xmlns:svgjs="http://svgjs.com/svgjs" width="1440" height="560" preserveAspectRatio="none" viewBox="0 0 1440 560"><g mask="url(&quot;#SvgjsMask1375&quot;)" fill="none"><rect width="1440" height="560" x="0" y="0" fill="rgba(255, 255, 255, 1)"></rect><path d="M884.99 395.79a5.6 5.6 0 1 0 6.71-8.97 5.6 5.6 0 1 0-6.71 8.97zM894.57 382.97a5.6 5.6 0 1 0 6.71-8.97 5.6 5.6 0 1 0-6.71 8.97zM904.15 370.16a5.6 5.6 0 1 0 6.71-8.97 5.6 5.6 0 1 0-6.71 8.97zM913.74 357.35a5.6 5.6 0 1 0 6.7-8.97 5.6 5.6 0 1 0-6.7 8.97z" stroke="#037b0b" stroke-width="1.81"></path><path d="M1242.51 392.42a5.6 5.6 0 1 0 3.21 10.73 5.6 5.6 0 1 0-3.21-10.73zM1247.1 407.74a5.6 5.6 0 1 0 3.22 10.73 5.6 5.6 0 1 0-3.22-10.73zM1251.7 423.07a5.6 5.6 0 1 0 3.21 10.73 5.6 5.6 0 1 0-3.21-10.73zM1256.29 438.39a5.6 5.6 0 1 0 3.22 10.73 5.6 5.6 0 1 0-3.22-10.73zM1217.99 366.36a5.6 5.6 0 1 0 3.22 10.73 5.6 5.6 0 1 0-3.22-10.73zM1222.59 381.69a5.6 5.6 0 1 0 3.21 10.72 5.6 5.6 0 1 0-3.21-10.72zM1227.18 397.01a5.6 5.6 0 1 0 3.22 10.73 5.6 5.6 0 1 0-3.22-10.73zM1231.78 412.34a5.6 5.6 0 1 0 3.21 10.73 5.6 5.6 0 1 0-3.21-10.73z" fill="#e73635"></path><path d="M248.08 425.78a5.6 5.6 0 1 0 11.11 1.4 5.6 5.6 0 1 0-11.11-1.4zM263.96 427.78a5.6 5.6 0 1 0 11.11 1.4 5.6 5.6 0 1 0-11.11-1.4zM279.83 429.78a5.6 5.6 0 1 0 11.11 1.4 5.6 5.6 0 1 0-11.11-1.4zM295.7 431.78a5.6 5.6 0 1 0 11.12 1.4 5.6 5.6 0 1 0-11.12-1.4z" fill="#037b0b"></path><rect width="222.6" height="222.6" clip-path="url(&quot;#SvgjsClipPath1376&quot;)" x="1185.48" y="339.22" fill="url(#SvgjsPattern1377)" transform="rotate(42.62, 1296.78, 450.52)"></rect><rect width="79" height="79" clip-path="url(&quot;#SvgjsClipPath1378&quot;)" x="248.23" y="277.42" fill="url(#SvgjsPattern1379)" transform="rotate(209.55, 287.73, 316.92)"></rect><rect width="108" height="108" clip-path="url(&quot;#SvgjsClipPath1380&quot;)" x="121" y="330.92" fill="url(#SvgjsPattern1381)" transform="rotate(267.4, 175, 384.92)"></rect><path d="M552.26 214.31 L549.26 329.87L503.33382121295443 224.66382121295447z" stroke="#d3b714" stroke-width="2.26" stroke-dasharray="4, 4"></path><path d="M1052.1100000000001 277.88 L1118.0900000000001 146.44L1166.9337693993693 293.99376939936917z" stroke="#d3b714" stroke-width="1.98"></path><path d="M845.64 476.99a5.6 5.6 0 1 0 4.31 10.34 5.6 5.6 0 1 0-4.31-10.34zM851.8 491.76a5.6 5.6 0 1 0 4.31 10.33 5.6 5.6 0 1 0-4.31-10.33zM857.96 506.52a5.6 5.6 0 1 0 4.32 10.34 5.6 5.6 0 1 0-4.32-10.34zM864.13 521.29a5.6 5.6 0 1 0 4.31 10.33 5.6 5.6 0 1 0-4.31-10.33zM818.54 453.63a5.6 5.6 0 1 0 4.32 10.33 5.6 5.6 0 1 0-4.32-10.33zM824.71 468.39a5.6 5.6 0 1 0 4.31 10.34 5.6 5.6 0 1 0-4.31-10.34zM830.87 483.16a5.6 5.6 0 1 0 4.32 10.33 5.6 5.6 0 1 0-4.32-10.33zM837.03 497.92a5.6 5.6 0 1 0 4.32 10.34 5.6 5.6 0 1 0-4.32-10.34zM791.45 430.26a5.6 5.6 0 1 0 4.31 10.34 5.6 5.6 0 1 0-4.31-10.34zM797.61 445.03a5.6 5.6 0 1 0 4.32 10.33 5.6 5.6 0 1 0-4.32-10.33zM803.78 459.79a5.6 5.6 0 1 0 4.31 10.34 5.6 5.6 0 1 0-4.31-10.34zM809.94 474.56a5.6 5.6 0 1 0 4.32 10.33 5.6 5.6 0 1 0-4.32-10.33z" fill="#e73635"></path><rect width="335.04" height="335.04" clip-path="url(&quot;#SvgjsClipPath1382&quot;)" x="944.85" y="163.18" fill="url(#SvgjsPattern1383)" transform="rotate(114.4, 1112.37, 330.7)"></rect><rect width="60" height="60" clip-path="url(&quot;#SvgjsClipPath1384&quot;)" x="832.31" y="426.37" fill="url(#SvgjsPattern1385)" transform="rotate(92.85, 862.31, 456.37)"></rect><path d="M233.59 419.26L226.73 430.08 214.67 425.76 207.81 436.57 195.76 432.25 188.9 443.06 176.84 438.74" stroke="#d3b714" stroke-width="2.24"></path></g><defs><mask id="SvgjsMask1375"><rect width="1440" height="560" fill="#ffffff"></rect></mask><pattern x="0" y="0" width="7.42" height="7.42" patternUnits="userSpaceOnUse" id="SvgjsPattern1377"><path d="M0 7.42L3.71 0L7.42 7.42" stroke="#e73635" fill="none"></path></pattern><clipPath id="SvgjsClipPath1376"><circle r="55.65" cx="1296.78" cy="450.52"></circle></clipPath><pattern x="0" y="0" width="7.9" height="7.9" patternUnits="userSpaceOnUse" id="SvgjsPattern1379"><path d="M0 7.9L3.95 0L7.9 7.9" stroke="#e73635" fill="none"></path></pattern><clipPath id="SvgjsClipPath1378"><circle r="19.75" cx="287.73" cy="316.92"></circle></clipPath><pattern x="0" y="0" width="6" height="6" patternUnits="userSpaceOnUse" id="SvgjsPattern1381"><path d="M0 6L3 0L6 6" stroke="#e73635" fill="none"></path></pattern><clipPath id="SvgjsClipPath1380"><circle r="27" cx="175" cy="384.92"></circle></clipPath><pattern x="0" y="0" width="13.96" height="13.96" patternUnits="userSpaceOnUse" id="SvgjsPattern1383"><path d="M6.98 1L6.98 12.96M1 6.98L12.96 6.98" stroke="#d3b714" fill="none" stroke-width="4.65"></path></pattern><clipPath id="SvgjsClipPath1382"><circle r="83.76" cx="1112.37" cy="330.7"></circle></clipPath><pattern x="0" y="0" width="60" height="6" patternUnits="userSpaceOnUse" id="SvgjsPattern1385"><rect width="60" height="3" x="0" y="0" fill="#d3b714"></rect><rect width="60" height="3" x="0" y="3" fill="rgba(0, 0, 0, 0)"></rect></pattern><clipPath id="SvgjsClipPath1384"><circle r="15" cx="862.31" cy="456.37"></circle></clipPath></defs></svg>