<svg xmlns="http://www.w3.org/2000/svg" version="1.1" xmlns:xlink="http://www.w3.org/1999/xlink" xmlns:svgjs="http://svgjs.com/svgjs" width="1440" height="560" preserveAspectRatio="none" viewBox="0 0 1440 560"><g mask="url(&quot;#SvgjsMask1012&quot;)" fill="none"><rect width="1440" height="560" x="0" y="0" fill="rgba(96, 165, 250, 1)"></rect><path d="M1338.14 523.05L1351.97 523.05L1351.97 531.47L1338.14 531.47z" stroke="#e73635"></path><path d="M881.2 329.67L922.51 329.67L922.51 347.4L881.2 347.4z" stroke="#d3b714"></path><path d="M209.29 479.28L222.89 479.28L222.89 514.05L209.29 514.05z" stroke="#e73635"></path><path d="M242.32 180.77L277.36 180.77L277.36 229.71L242.32 229.71z" stroke="#037b0b"></path><path d="M1162.2 455.36 a54.05 54.05 0 1 0 108.1 0 a54.05 54.05 0 1 0 -108.1 0z" stroke="#d3b714"></path><path d="M787.74 433.45 a6.51 6.51 0 1 0 13.02 0 a6.51 6.51 0 1 0 -13.02 0z" stroke="#e73635"></path><path d="M925.97 402.2 a44.79 44.79 0 1 0 89.58 0 a44.79 44.79 0 1 0 -89.58 0z" fill="#e73635"></path><path d="M71.86 557.79L88.78 557.79L88.78 574.71L71.86 574.71z" fill="#d3b714"></path><path d="M1161.26 136.98 a3.41 3.41 0 1 0 6.82 0 a3.41 3.41 0 1 0 -6.82 0z" fill="#037b0b"></path><path d="M842.32 202.27L845.76 202.27L845.76 205.75L842.32 205.75z" fill="#d3b714"></path><path d="M245.42 501.84L275.02 501.84L275.02 531.44L245.42 531.44z" fill="#037b0b"></path><path d="M1392.29 253.3a47.91 47.91 0 1 0 29.14-91.28z" stroke="#037b0b"></path><path d="M53.66 22.36 a21.52 21.52 0 1 0 43.04 0 a21.52 21.52 0 1 0 -43.04 0z" stroke="#d3b714"></path><path d="M521.31 251.28a47.22 47.22 0 1 0 28.8 89.94z" stroke="#e73635"></path><path d="M1345.52 253.12 a29.75 29.75 0 1 0 59.5 0 a29.75 29.75 0 1 0 -59.5 0z" fill="#d3b714"></path><path d="M483.62 46.82 a41.8 41.8 0 1 0 83.6 0 a41.8 41.8 0 1 0 -83.6 0z" stroke="#e73635"></path><path d="M581.15 268.63 a13.18 13.18 0 1 0 26.36 0 a13.18 13.18 0 1 0 -26.36 0z" stroke="#037b0b"></path><path d="M977.5 297.68 a18.29 18.29 0 1 0 36.58 0 a18.29 18.29 0 1 0 -36.58 0z" stroke="#037b0b"></path><path d="M1189.78 492.55L1233.54 492.55L1233.54 500.69L1189.78 500.69z" fill="#037b0b"></path><path d="M1224.41 410.55a17.69 17.69 0 1 0-17.41-30.8z" stroke="#037b0b"></path><path d="M714.87 442.52L742.74 442.52L742.74 494.7L714.87 494.7z" fill="#e73635"></path><path d="M9.01 173.46L42.58 173.46L42.58 174.01L9.01 174.01z" fill="#e73635"></path><path d="M464.74 234.11 a25.73 25.73 0 1 0 51.46 0 a25.73 25.73 0 1 0 -51.46 0z" fill="#d3b714"></path><path d="M714.29 314.41 a39.88 39.88 0 1 0 79.76 0 a39.88 39.88 0 1 0 -79.76 0z" stroke="#e73635"></path><path d="M803.83 552.85L839.07 552.85L839.07 588.09L803.83 588.09z" fill="#d3b714"></path><path d="M257.2 248.42 a4.1 4.1 0 1 0 8.2 0 a4.1 4.1 0 1 0 -8.2 0z" fill="#037b0b"></path><path d="M329.11 365.01 a34.46 34.46 0 1 0 68.92 0 a34.46 34.46 0 1 0 -68.92 0z" stroke="#e73635"></path><path d="M1026.9 369.04L1031.25 369.04L1031.25 403.12L1026.9 403.12z" stroke="#d3b714"></path><path d="M1044.21 460.97L1080.52 460.97L1080.52 497.28L1044.21 497.28z" stroke="#e73635"></path><path d="M245.45 167.88a31.62 31.62 0 1 0-23.99 58.52z" stroke="#e73635"></path><path d="M675.28 79.75L689.31 79.75L689.31 133.81L675.28 133.81z" stroke="#037b0b"></path><path d="M650.32 384.64a28.17 28.17 0 1 0 53.36-18.08z" stroke="#037b0b"></path><path d="M1147.76 261.26L1184.5 261.26L1184.5 296.59L1147.76 296.59z" fill="#e73635"></path></g><defs><mask id="SvgjsMask1012"><rect width="1440" height="560" fill="#ffffff"></rect></mask></defs></svg>