<svg xmlns="http://www.w3.org/2000/svg" version="1.1" xmlns:xlink="http://www.w3.org/1999/xlink" xmlns:svgjs="http://svgjs.com/svgjs" width="1440" height="560" preserveAspectRatio="none" viewBox="0 0 1440 560"><g mask="url(&quot;#SvgjsMask1029&quot;)" fill="none"><rect width="1440" height="560" x="0" y="0" fill="rgba(255, 255, 255, 1)"></rect><path d="M529.11 110.32L541.65 112.92 541.86 125.72 554.4 128.32 554.62 141.13 567.16 143.73 567.37 156.53M522.95 115.42L535.49 118.02 535.7 130.82 548.24 133.42 548.46 146.23 560.99 148.83 561.21 161.63M516.79 120.52L529.32 123.12 529.54 135.92 542.08 138.53 542.29 151.33 554.83 153.93 555.05 166.74" stroke="#037b0b" stroke-width="2.57" stroke-dasharray="4, 4"></path><circle r="46.666666666666664" cx="1026.81" cy="421.4" stroke="#037b0b" stroke-width="1.11" stroke-dasharray="2, 2"></circle><rect width="300" height="300" clip-path="url(&quot;#SvgjsClipPath1030&quot;)" x="751.46" y="283.62" fill="url(#SvgjsPattern1031)" transform="rotate(343.52, 901.46, 433.62)"></rect><rect width="60" height="60" clip-path="url(&quot;#SvgjsClipPath1032&quot;)" x="793.25" y="141.75" fill="url(#SvgjsPattern1033)" transform="rotate(63.46, 823.25, 171.75)"></rect><path d="M1102.23 495.04 L960.24 415.21L1115.5950331106742 370.7649668893258z" stroke="#d3b714" stroke-width="1.82" stroke-dasharray="3, 2"></path><path d="M132.5 388.5L135.44 376.04 148.24 376.17 151.18 363.7 163.99 363.83 166.92 351.37 179.73 351.49M137.43 394.8L140.37 382.33 153.18 382.46 156.11 370 168.92 370.13 171.86 357.66 184.66 357.79M142.37 401.1L145.31 388.63 158.11 388.76 161.05 376.3 173.85 376.42 176.79 363.96 189.6 364.09" stroke="#d3b714" stroke-width="1.24" stroke-dasharray="4, 4"></path><rect width="288" height="288" clip-path="url(&quot;#SvgjsClipPath1034&quot;)" x="1178.89" y="287.68" fill="url(#SvgjsPattern1035)" transform="rotate(329.98, 1322.89, 431.68)"></rect><path d="M201.85 101.07L214.46 103.28 215.08 116.07 227.69 118.27 228.31 131.07 240.92 133.27 241.54 146.06M195.85 106.36L208.46 108.57 209.08 121.36 221.69 123.57 222.31 136.36 234.92 138.57 235.54 151.36M189.85 111.66L202.46 113.86 203.08 126.65 215.69 128.86 216.31 141.65 228.93 143.86 229.54 156.65" stroke="#d3b714" stroke-width="2.13" stroke-dasharray="4, 4"></path><rect width="216" height="216" clip-path="url(&quot;#SvgjsClipPath1036&quot;)" x="1297.85" y="88.97" fill="url(#SvgjsPattern1037)" transform="rotate(130.54, 1405.85, 196.97)"></rect><circle r="46.666666666666664" cx="650.77" cy="148.22" fill="#037b0b"></circle><path d="M1088.76 593.46 L962.4 603.65L965.0468233696907 538.0218233696909z" stroke="#037b0b" stroke-width="1" stroke-dasharray="3, 2"></path><rect width="78" height="78" clip-path="url(&quot;#SvgjsClipPath1038&quot;)" x="846.64" y="80.36" fill="url(#SvgjsPattern1039)" transform="rotate(8.03, 885.64, 119.36)"></rect></g><defs><mask id="SvgjsMask1029"><rect width="1440" height="560" fill="#F8FEFA"></rect></mask><pattern x="0" y="0" width="300" height="6" patternUnits="userSpaceOnUse" id="SvgjsPattern1031"><rect width="300" height="3" x="0" y="0" fill="#d3b714"></rect><rect width="300" height="3" x="0" y="3" fill="rgba(0, 0, 0, 0)"></rect></pattern><clipPath id="SvgjsClipPath1030"><circle r="75" cx="901.46" cy="433.62"></circle></clipPath><pattern x="0" y="0" width="6" height="6" patternUnits="userSpaceOnUse" id="SvgjsPattern1033"><path d="M3 1L3 5M1 3L5 3" stroke="#d3b714" fill="none" stroke-width="1.41"></path></pattern><clipPath id="SvgjsClipPath1032"><circle r="15" cx="823.25" cy="171.75"></circle></clipPath><pattern x="0" y="0" width="288" height="6" patternUnits="userSpaceOnUse" id="SvgjsPattern1035"><rect width="288" height="3" x="0" y="0" fill="#037b0b"></rect><rect width="288" height="3" x="0" y="3" fill="rgba(0, 0, 0, 0)"></rect></pattern><clipPath id="SvgjsClipPath1034"><circle r="72" cx="1322.89" cy="431.68"></circle></clipPath><pattern x="0" y="0" width="6" height="6" patternUnits="userSpaceOnUse" id="SvgjsPattern1037"><path d="M0 6L3 0L6 6" stroke="#d3b714" fill="none"></path></pattern><clipPath id="SvgjsClipPath1036"><circle r="54" cx="1405.85" cy="196.97"></circle></clipPath><pattern x="0" y="0" width="7.8" height="7.8" patternUnits="userSpaceOnUse" id="SvgjsPattern1039"><path d="M0 7.8L3.9 0L7.8 7.8" stroke="#d3b714" fill="none"></path></pattern><clipPath id="SvgjsClipPath1038"><circle r="19.5" cx="885.64" cy="119.36"></circle></clipPath></defs></svg>