<svg xmlns="http://www.w3.org/2000/svg" version="1.1" xmlns:xlink="http://www.w3.org/1999/xlink" xmlns:svgjs="http://svgjs.com/svgjs" width="1440" height="560" preserveAspectRatio="none" viewBox="0 0 1440 560"><g mask="url(&quot;#SvgjsMask1024&quot;)" fill="none"><rect width="1440" height="560" x="0" y="0" fill="url(#SvgjsLinearGradient1025)"></rect><path d="M1440 0L929.49 0L1440 267.11z" fill="rgba(255, 255, 255, .1)"></path><path d="M929.49 0L1440 267.11L1440 327.17L689.07 0z" fill="rgba(255, 255, 255, .075)"></path><path d="M689.07 0L1440 327.17L1440 433.33000000000004L307.5400000000001 0z" fill="rgba(255, 255, 255, .05)"></path><path d="M307.53999999999996 0L1440 433.33000000000004L1440 434.43000000000006L184.76999999999998 0z" fill="rgba(255, 255, 255, .025)"></path><path d="M0 560L252.51 560L0 341.8z" fill="rgba(0, 0, 0, .1)"></path><path d="M0 341.8L252.51 560L524.64 560L0 255.65z" fill="rgba(0, 0, 0, .075)"></path><path d="M0 255.64999999999998L524.64 560L548.28 560L0 101.28999999999996z" fill="rgba(0, 0, 0, .05)"></path><path d="M0 101.28999999999996L548.28 560L1113.3600000000001 560L0 93.21999999999997z" fill="rgba(0, 0, 0, .025)"></path></g><defs><mask id="SvgjsMask1024"><rect width="1440" height="560" fill="#ffffff"></rect></mask><linearGradient x1="15.28%" y1="-39.29%" x2="84.72%" y2="139.29%" gradientUnits="userSpaceOnUse" id="SvgjsLinearGradient1025"><stop stop-color="#0e2a47" offset="0"></stop><stop stop-color="rgba(67, 135, 223, 1)" offset="1"></stop></linearGradient></defs></svg>